<?xml version="1.0" encoding="UTF-8" standalone="no"?>
<!-- Created with Inkscape (http://www.inkscape.org/) -->

<svg
   version="1.1"
   id="svg1"
   width="2280.7981"
   height="2491.4114"
   viewBox="0 0 2280.7981 2491.4114"
   sodipodi:docname="paw_heart.svg"
   inkscape:version="1.3.2 (091e20e, 2023-11-25, custom)"
   xmlns:inkscape="http://www.inkscape.org/namespaces/inkscape"
   xmlns:sodipodi="http://sodipodi.sourceforge.net/DTD/sodipodi-0.dtd"
   xmlns="http://www.w3.org/2000/svg"
   xmlns:svg="http://www.w3.org/2000/svg">
  <defs
     id="defs1" />
  <sodipodi:namedview
     id="namedview1"
     pagecolor="#505050"
     bordercolor="#eeeeee"
     borderopacity="1"
     inkscape:showpageshadow="0"
     inkscape:pageopacity="0"
     inkscape:pagecheckerboard="0"
     inkscape:deskcolor="#505050"
     inkscape:zoom="0.26405859"
     inkscape:cx="1147.4726"
     inkscape:cy="1376.5884"
     inkscape:window-width="1920"
     inkscape:window-height="991"
     inkscape:window-x="-9"
     inkscape:window-y="-9"
     inkscape:window-maximized="1"
     inkscape:current-layer="g1" />
  <g
     inkscape:groupmode="layer"
     inkscape:label="Image"
     id="g1"
     transform="translate(-323.30054,-93.42723)">
    <path
       style="fill:#ffffff"
       d="m 979.09258,2584.4306 c -62.4844,-2.9608 -123.286,-21.5157 -177.9592,-54.3078 -40.6675,-24.3918 -74.4426,-53.6996 -102.9339,-89.3191 -52.199,-65.2586 -83.7416,-149.1948 -91.4905,-243.4601 -1.3931,-16.9471 -1.6729,-24.6431 -1.6713,-45.977 0,-24.8117 0.6411,-37.8092 2.958,-60.138 13.1022,-126.2724 64.3923,-254.4192 149.4248,-373.3333 44.4514,-62.1633 97.5913,-120.7159 160.4307,-176.772 81.9582,-73.1111 182.76642,-142.8041 304.42292,-210.4604 44.3228,-24.649 103.3356,-55.5293 129.784,-67.9134 60.2718,-28.2216 107.3013,-42.4138 156.3219,-47.1737 8.4727,-0.8227 37.1471,-0.9378 45.4252,-0.1823 13.7605,1.2558 26.0338,3.2889 38.4368,6.3673 48.6871,12.0837 93.275,35.2753 151.9081,79.0121 28.1057,20.9652 105.1832,82.1572 147.3103,116.95 90.2711,74.5548 160.0786,140.4023 213.4323,201.325 117.3663,134.0162 189.324,277.0688 214.1095,425.652 7.8295,46.9361 11.0341,86.46 10.1247,124.8736 -0.6541,27.6339 -3.0473,49.2468 -8.288,74.8506 -12.8129,62.5978 -38.9754,121.3663 -76.3867,171.5862 -57.1678,76.7405 -139.2072,125.0177 -230.9022,135.8774 -15.6036,1.848 -22.3311,2.201 -41.9057,2.1985 -21.7248,0 -35.6778,-0.7123 -57.3793,-2.9183 -121.6894,-12.3701 -259.3284,-61.0975 -385.5371,-136.4891 -15.1362,-9.0417 -38.3938,-23.8166 -49.8259,-31.6529 -2.4566,-1.6839 -4.5515,-3.0616 -4.6553,-3.0616 -0.1039,0 -5.5423,3.2048 -12.0853,7.1218 -57.6061,34.4859 -116.0845,66.3608 -169.0714,92.1559 -9.855,4.7976 -16.3517,7.7568 -17.0297,7.7568 -0.6029,0 -1.5523,-0.2359 -2.1098,-0.5242 -1.9645,-1.0159 -2.5466,-4.2255 -1.0648,-5.8712 0.4552,-0.5055 10.7586,-7.5759 22.8966,-15.7119 43.7464,-29.3232 80.096,-54.1805 112,-76.5898 10.4708,-7.3548 36.6035,-25.9257 38.1523,-27.1125 0.8132,-0.6232 0.771,-0.6631 -6.0664,-5.7309 -38.029,-28.1859 -71.2426,-56.5137 -103.0156,-87.8618 -58.4424,-57.6609 -103.2847,-117.8783 -133.9385,-179.8621 -15.8577,-32.0651 -27.2399,-62.7139 -34.9107,-94.0038 -14.8123,-60.421 -13.5511,-125.1767 3.4417,-176.7089 8.3604,-25.3536 19.0113,-45.3564 34.1758,-64.1839 4.8284,-5.9947 16.8406,-17.9975 22.6671,-22.6494 22.9152,-18.2954 47.314,-29.0256 76.0119,-33.4288 10.7954,-1.6563 13.9366,-1.8533 29.3674,-1.8418 15.6712,0.012 18.714,0.2255 31.8161,2.2343 35.3634,5.4218 72.2327,20.5282 103.468,42.3938 15.5617,10.8936 32.5861,25.4623 45.4651,38.907 l 4.9331,5.1498 3.8945,-4.4382 c 38.0542,-43.3672 79.3365,-70.8715 122.3313,-81.5035 14.8506,-3.6723 22.6576,-4.5952 38.8046,-4.5872 13.2071,0.01 17.7992,0.3742 27.954,2.2384 54.1395,9.9384 100.3773,50.37 126.0017,110.1793 9.4767,22.1193 15.4454,45.7893 18.0721,71.6682 0.7975,7.8568 0.9005,36.1973 0.1712,47.0804 -3.8233,57.0538 -17.0887,107.2726 -40.9236,154.9237 -21.274,42.5314 -45.7735,74.1986 -89.7122,115.9589 -46.9006,44.5752 -97.9837,84.5606 -166.2529,130.1344 -10.0138,6.6849 -18.2487,12.2541 -18.2998,12.3761 -0.1094,0.2612 -0.9975,-0.3099 11.6323,7.4797 43.6968,26.9502 90.7039,51.4255 136.8744,71.2667 103.9386,44.6665 205.2256,67.1699 291.2708,64.7133 12.7159,-0.363 18.8338,-0.7539 25.9706,-1.659 48.2078,-6.114 94.1194,-25.9835 131.0959,-56.7353 18.093,-15.0471 35.6347,-33.7646 50.3088,-53.681 31.7541,-43.0983 54.0172,-96.6873 63.5273,-152.9154 4.0476,-23.9314 5.2259,-43.7724 4.2594,-71.7241 -4.0107,-115.9974 -38.4694,-229.932 -101.6209,-336 -64.4712,-108.2847 -158.1375,-211.1719 -300.2142,-329.7685 -50.5903,-42.2296 -134.5447,-109.2226 -162.7586,-129.8764 -40.5929,-29.7157 -71.9154,-46.7887 -104.1463,-56.7671 -36.7131,-11.3661 -74.5111,-11.6595 -118.0146,-0.9163 -17.3929,4.2952 -37.505,11.0218 -57.1954,19.1292 -19.469,8.0162 -34.6303,15.0744 -65.2874,30.3938 -90.4353,45.1906 -173.2608,92.6891 -243.3104,139.533 -100.4287,67.1592 -183.10082,138.9199 -250.21602,217.1918 -61.7988,72.0718 -110.45,151.0813 -142.8006,231.9081 -16.9514,42.3523 -29.5152,85.4679 -37.2991,128 -12.7399,69.6129 -12.9228,137.0324 -0.5407,199.3563 21.5726,108.5834 80.0898,194.5279 168.6036,247.6284 48.124,28.8703 101.1882,46.4573 155.0345,51.383 11.81482,1.0807 21.93882,1.4112 36.59772,1.1945 16.8206,-0.2487 25.3304,-0.8365 41.1954,-2.8455 29.5329,-3.7398 61.5336,-11.8097 89.9125,-22.6739 9.5685,-3.6631 9.356,-3.6083 11.2221,-2.8956 1.7405,0.6647 3.1412,2.6832 3.1412,4.5266 0,2.8044 -1.773,4.0301 -17.4712,12.0773 -56.454,28.9396 -118.8576,42.4691 -182.06902,39.4738 z m 537.01152,-275.2317 c 48.8573,-37.2677 100.2223,-79.7504 133.1494,-110.1246 33.303,-30.7209 57.0628,-55.5796 77.2162,-80.7874 36.8332,-46.071 61.0283,-105.5018 68.9663,-169.4031 4.1896,-33.7267 3.7702,-61.2492 -1.3117,-86.069 -4.5037,-21.9963 -12.5084,-41.334 -24.5893,-59.4023 -5.6196,-8.4046 -9.6034,-13.3108 -15.9886,-19.6902 -16.638,-16.623 -35.1548,-26.0966 -57.2124,-29.2714 -5.9485,-0.8562 -17.4622,-0.8594 -23.7242,-0.01 -17.2884,2.3546 -35.1869,9.4948 -52.8823,21.0962 -18.8412,12.3526 -38.3343,30.7137 -56.6668,53.3759 l -4.4765,5.5338 2.2509,3.5728 c 20.5837,32.6724 35.8529,72.3401 40.7619,105.8952 5.0274,34.3646 -3.2256,64.1608 -23.668,85.4495 -13.6789,14.2451 -31.0882,23.0405 -50.6919,25.6103 -16.8304,2.2063 -36.2248,0.1042 -50.4861,-5.4721 -27.5312,-10.7648 -44.9381,-31.855 -49.8462,-60.3935 -1.0857,-6.3129 -1.574,-15.964 -1.1028,-21.7975 2.2368,-27.6939 21.1025,-74.0108 49.5686,-121.6951 3.7362,-6.2587 4.1687,-7.1548 3.7283,-7.7242 -3.8494,-4.9764 -18.8391,-20.1737 -26.4431,-26.8093 -31.0531,-27.0985 -64.7009,-43.1714 -100.4138,-47.966 -7.355,-0.9874 -23.5614,-1.3848 -30.4001,-0.7454 -22.8438,2.1359 -41.3677,10.6953 -56.6753,26.188 -28.1485,28.4891 -41.7643,77.3499 -37.9623,136.2289 3.2959,51.0418 20.9435,104.9074 51.5761,157.4253 42.4446,72.769 108.8408,144.2189 192.4519,207.1004 18.8465,14.1738 36.1034,26.394 36.7391,26.0161 0.2247,-0.1336 3.8844,-2.8943 8.1327,-6.1348 z m 5.9139,-318.8965 c 9.3154,-2.9813 14.9775,-11.2147 15.8362,-23.0278 0.2679,-3.6848 -0.3105,-11.2634 -1.3491,-17.6774 -1.5895,-9.816 -5.0557,-21.7869 -9.7386,-33.6329 -2.4075,-6.0904 -7.6401,-17.7225 -8.2437,-18.3262 -0.3876,-0.3876 -7.6418,13.9641 -12.4724,24.6755 -6.3745,14.1348 -12.0517,29.4882 -14.993,40.5472 -1.3284,4.9946 -1.418,5.6605 -1.4103,10.4828 0.01,4.2586 0.1435,5.5523 0.7896,7.4783 1.0287,3.0661 2.3348,4.8857 4.6462,6.4726 2.9671,2.0371 6.3084,3.0256 13.6649,4.0425 0.6069,0.084 3.1724,0.099 5.7011,0.034 3.7086,-0.095 5.1723,-0.3019 7.5691,-1.069 z M 747.00058,1528.2402 c -10.4842,-0.5752 -23.7727,-2.3181 -32.0349,-4.2017 -8.0127,-1.8267 -12.86,-3.3436 -24.4757,-7.6589 -17.3508,-6.4461 -26.7035,-10.4747 -42.7997,-18.4359 -76.4125,-37.7933 -144.3446,-98.7942 -200.2105,-179.7829 -12.7864,-18.5364 -26.175,-40.382 -37.5833,-61.323 -48.0166,-88.1389 -77.27025,-190.1442 -84.75685,-295.54024 -3.0986,-43.6214 -2.2252,-94.88424 2.1935,-128.74512 5.956,-45.64065 19.7118,-81.77632 41.58165,-109.2319 5.0453,-6.33384 16.5476,-17.83014 22.9594,-22.94739 26.4872,-21.13937 59.1546,-33.38675 96.7172,-36.26036 10.6569,-0.81527 27.3874,-0.41767 39.0069,0.92701 39.5969,4.58236 78.0862,20.72139 115.1265,48.27386 35.432,26.35616 68.1083,59.9319 102.2689,105.08389 23.3231,30.82741 51.0429,72.71782 69.1256,104.46321 31.8907,55.9865 58.0556,115.42294 78.0149,177.21934 18.0029,55.7395 28.4921,101.5103 33.2263,144.9876 2.14,19.6529 2.9186,34.4547 2.9118,55.3563 -0.011,33.3432 -2.7377,61.1501 -7.6976,78.496 -2.5642,8.9676 -7.3007,20.0215 -9.2288,21.5382 -1.2584,0.9898 -3.7386,1.0019 -4.9815,0.024 -1.3219,-1.0398 -1.6276,-2.1675 -2.0974,-7.7366 -1.0648,-12.623 -2.4719,-19.7863 -9.0312,-45.977 -2.9132,-11.6322 -8.4591,-34.2253 -12.3241,-50.2069 -23.5026,-97.1805 -35.8891,-141.2311 -52.9025,-188.138 -16.0924,-44.3676 -37.5991,-90.2796 -63.1576,-134.82734 -46.9958,-81.91199 -102.2187,-151.51502 -152.6373,-192.3838 -9.7603,-7.91161 -23.2445,-17.48986 -31.2597,-22.20465 -34.487,-20.28653 -70.5084,-27.34118 -104.3259,-20.43186 -19.4063,3.96494 -37.17,13.38159 -49.0416,25.99724 -5.9046,6.27469 -10.0474,12.30838 -14.3596,20.91389 -8.6488,17.25958 -14.0769,38.19856 -17.0662,65.83306 -3.1641,29.24953 -3.8567,74.12132 -1.6749,108.50572 11.2741,177.67344 88.1433,339.36864 210.4917,442.77104 16.7785,14.1803 47.151,37.099 70.1512,52.9351 16.0973,11.0834 35.1036,23.2663 40.6299,26.0435 18.5736,9.334 43.6678,15.4912 69.7012,17.1021 18.2133,1.127 37.3322,-0.6597 54.2529,-5.07 3.5402,-0.9228 7.3961,-1.7473 8.5686,-1.8322 2.0472,-0.1483 2.1805,-0.1028 3.3573,1.1449 2.1897,2.3217 1.9962,5.2347 -0.4864,7.3237 -2.294,1.9302 -11.0012,7.1037 -17.5085,10.4029 -18.183,9.2187 -37.7414,14.7004 -60.3361,16.9107 -5.6653,0.5542 -23.0184,0.9724 -28.3076,0.6822 z m 1414.80472,-0.019 c -21.6963,-1.2108 -40.4236,-5.1133 -58.2989,-12.1486 -10.3218,-4.0624 -25.5597,-12.3857 -29.6926,-16.2188 -2.1695,-2.0121 -2.0987,-5.3531 0.1536,-7.2483 1.0189,-0.8573 1.409,-0.9576 3.2115,-0.8255 1.1284,0.083 4.9482,0.9054 8.4884,1.8282 28.4894,7.4256 60.8711,7.1414 92.6897,-0.8136 19.1015,-4.7755 28.9801,-9.131 46.8965,-20.6766 44.4047,-28.6148 78.8315,-54.67 110.81,-83.8641 8.6869,-7.9304 29.3991,-28.6521 36.9066,-36.9233 29.9943,-33.0454 53.8134,-66.2838 75.3275,-105.1159 16.652,-30.056 29.3187,-57.5268 40.9781,-88.8709 29.2001,-78.4987 43.9745,-165.03894 42.7948,-250.66674 -0.7295,-52.94777 -5.1634,-85.19919 -15.2206,-110.71264 -6.4489,-16.35948 -14.5487,-28.26004 -25.4599,-37.40653 -13.347,-11.18824 -31.1361,-18.71278 -50.6142,-21.40905 -28.5728,-3.95521 -58.3099,1.85395 -87.6958,17.13145 -34.6113,17.99409 -68.2725,48.24665 -109.7589,98.64418 -68.4708,83.17819 -124.1257,185.25403 -157.4557,288.78713 -12.4626,38.7124 -21.1387,71.1508 -40.4333,151.1724 -7.0954,29.4271 -12.0228,49.3946 -14.7495,59.7701 -4.2729,16.2585 -6.2735,26.6427 -7.3698,38.2529 -0.7645,8.0969 -0.7386,7.9773 -2.0038,9.2425 -1.3296,1.3296 -3.7902,1.4763 -5.2679,0.314 -1.9162,-1.5074 -6.6909,-12.6455 -9.2352,-21.5433 -4.9595,-17.3444 -7.6862,-45.1468 -7.6983,-78.496 -0.013,-35.3302 3.1345,-66.9387 10.2731,-103.1724 10.4517,-53.0506 30.4212,-116.9879 54.2231,-173.6092 19.1532,-45.56284 43.5601,-92.76994 67.3719,-130.30893 47.7124,-75.21794 88.4648,-125.41846 132.3103,-162.98543 48.2214,-41.31625 94.9789,-62.47055 146.4273,-66.2474 6.48,-0.4757 22.7933,-0.46861 29.0759,0.0126 15.924,1.21977 31.7405,4.27758 45.5908,8.81407 15.148,4.96154 30.8461,12.76404 43.2184,21.48099 10.4161,7.33871 23.2298,19.33952 30.7956,28.84179 20.3225,25.52434 33.5929,58.25808 40.1876,99.12994 5.6815,35.21178 7.1035,88.95723 3.6657,138.54973 -5.7037,82.27804 -25.1103,163.71884 -56.7079,237.97704 -10.1035,23.7446 -22.9056,49.4765 -35.9586,72.2759 -52.4533,91.6193 -126.3589,168.5936 -205.4307,213.9607 -21.5629,12.3717 -40.389,21.1931 -64.3678,30.1611 -13.379,5.0037 -16.6369,6.0777 -24.092,7.942 -16.0125,4.0044 -36.8312,5.9263 -53.885,4.9745 z m -978.861,-426.8169 c -27.3349,-1.5651 -56.9959,-9.3617 -81.7368,-21.4851 -8.8632,-4.3431 -14.0362,-7.4508 -24.8252,-14.9137 -15.7874,-10.9204 -27.3442,-19.7063 -39.9546,-30.375 -50.64032,-42.84284 -94.36582,-97.84934 -129.78112,-163.26378 -4.1024,-7.57738 -15.4494,-30.28513 -18.9311,-37.88506 -30.5789,-66.74867 -49.9956,-133.25826 -60.5082,-207.26437 -12.0393,-84.75267 -10.2157,-173.3834 5.3503,-260.04599 9.5696,-53.27781 25.079,-108.39081 41.0184,-145.75918 18.0201,-42.24626 42.2935,-74.70748 71.3937,-95.47588 9.6678,-6.89977 24.7774,-15.12682 35.5942,-19.38066 14.4119,-5.667706 30.13572,-9.462456 47.44822,-11.451076 7.0322,-0.80776 29.8633,-0.92189 37.1495,-0.18571 50.6444,5.11702 94.2704,24.519776 134.9885,60.036476 6.5907,5.74883 22.1503,21.38454 28.3532,28.49189 14.2942,16.37843 27.4207,34.33458 38.5849,52.78161 23.9292,39.53881 45.9756,84.64993 63.9935,130.94253 24.7162,63.50231 44.9892,137.5696 56.2775,205.6092 9.61,57.92377 14.5372,117.35627 14.5302,175.26438 -0.01,73.63293 -9.5192,136.15669 -30.1278,198.06898 -6.3908,19.1991 -11.8383,31.0436 -19.708,42.8506 -4.818,7.2286 -8.0176,11.1499 -9.6565,11.8346 -1.8411,0.76934 -3.886,0.1591 -4.9058,-1.4639 -0.872,-1.3879 -0.8323,-2.1016 0.5463,-9.819 2.7357,-15.3149 3.0579,-20.6693 3.7067,-61.6092 0.2982,-18.8138 0.6338,-37.18619 0.7457,-40.82759 0.112,-3.6414 0.3726,-22.75863 0.5791,-42.48277 0.8899,-84.99942 -1.5794,-143.83634 -8.3205,-198.25288 -4.9795,-40.19665 -13.9495,-85.96507 -24.978,-127.44827 -24.0388,-90.42022 -59.3043,-176.43531 -97.0323,-236.66896 -34.2567,-54.69157 -69.9251,-88.60803 -109.6917,-104.30365 -18.9288,-7.47108 -36.5979,-10.99625 -54.9885,-10.97074 -30.0486,0.0417 -53.41702,9.38868 -73.39372,29.35639 -21.0005,20.99106 -36.6429,52.17619 -52.203,104.0734 -19.4602,64.905 -30.5757,131.39471 -33.2935,199.15274 -0.817,20.37042 -0.4138,52.85429 0.9208,74.16541 8.1064,129.4489 49.5623,250.27971 119.21732,347.48072 12.4205,17.3325 35.7621,46.4194 53.6568,66.8641 18.3382,20.95134 42.0813,45.96224 48.8518,51.46024 10.527,8.5485 25.9991,17.9804 39.5998,24.1403 12.3523,5.5945 27.8732,11.0065 40.4667,14.1104 18.2184,4.4903 32.9431,6.1702 51.2062,5.842 9.0149,-0.1619 9.9245,-0.1214 10.9246,0.4868 2.4549,1.4929 2.9901,4.9542 1.0992,7.1079 -0.9761,1.1116 -1.8956,1.5383 -6.7127,3.1149 -20.3554,6.6619 -42.5551,9.4081 -65.4541,8.0969 z m 540.1747,0 c -15.3556,-0.729 -30.6188,-3.5078 -44.0724,-8.0239 -4.6543,-1.5623 -5.7042,-2.0547 -6.7126,-3.1482 -0.96,-1.0409 -1.1951,-1.605 -1.194,-2.8647 0,-1.7634 0.9939,-3.6788 2.2557,-4.3542 0.5917,-0.3166 4.6312,-0.4614 14.2726,-0.5114 13.822,-0.072 17.9031,-0.3564 29.4473,-2.0537 33.7288,-4.9593 68.2322,-19.219 94.7409,-39.1548 6.2657,-4.7122 8.6648,-6.9654 19.9495,-18.7366 23.584,-24.60094 40.433,-43.87604 63.3591,-72.48214 10.5395,-13.1506 16.2261,-20.5721 22.9095,-29.8986 69.653,-97.19815 111.1111,-218.03563 119.2173,-347.48072 1.3346,-21.31112 1.7379,-53.79499 0.9208,-74.16541 -2.7178,-67.75803 -13.8333,-134.24774 -33.2935,-199.15274 -15.5586,-51.89212 -31.2489,-83.17179 -52.2004,-104.06477 -16.8645,-16.81744 -34.9262,-25.52388 -59.6032,-28.73107 -6.693,-0.86987 -20.9467,-0.87092 -28.1379,-0.002 -43.9841,5.31418 -81.3221,26.95791 -115.8824,67.17354 -29.0351,33.78619 -57.339,82.22925 -82.7414,141.61423 -26.1939,61.23566 -48.9255,134.17807 -61.7865,198.26459 -12.6615,63.09235 -17.668,109.91772 -19.9169,186.28211 -0.5279,17.92689 -0.5272,83.26033 0,112.36782 0.2186,12.03681 0.573,32.64372 0.7876,45.79312 0.7915,48.5028 1.0949,54.1433 3.7283,69.3333 1.5705,9.0587 1.6011,9.5227 0.7216,10.9225 -1.0198,1.623 -3.0647,2.23324 -4.9058,1.4639 -2.9729,-1.2421 -12.3127,-14.7761 -17.9294,-25.9807 -9.9633,-19.8755 -22.5178,-61.1602 -29.757,-97.85396 -8.6421,-43.80461 -12.2024,-85.6907 -11.6927,-137.56322 0.4885,-49.71236 3.6449,-92.32759 10.3796,-140.13794 5.2709,-37.41778 11.4505,-69.40576 20.059,-103.83286 24.626,-98.48346 58.3776,-182.79342 102.882,-256.99473 11.6223,-19.37761 25.2862,-38.18392 39.9523,-54.98851 6.2029,-7.10735 21.7625,-22.74306 28.3532,-28.49189 36.9763,-32.2529 76.8663,-51.43377 121.1954,-58.276196 12.0839,-1.86521 16.911,-2.20874 31.2644,-2.22495 10.5687,-0.0119 14.7167,0.12674 19.4943,0.65176 17.0005,1.86822 33.1226,5.7436 47.6322,11.449696 6.6202,2.60352 20.6449,9.67356 26.5826,13.40064 16.4735,10.34043 29.5991,21.92335 42.2723,37.30384 23.8173,28.90531 41.0289,64.19971 56.7157,116.30205 18.7203,62.17805 29.9515,124.85948 34.0398,189.97701 2.0244,32.24506 2.0255,69.77615 0,101.88506 -5.2387,83.16145 -22.6439,161.72839 -52.1086,235.2184 -12.1961,30.41907 -27.7767,62.29111 -44.0525,90.11499 -21.5454,36.83211 -45.2877,69.62821 -71.495,98.75861 -6.3248,7.0302 -28.0156,28.70754 -34.9916,34.96994 -17.2004,15.4406 -32.6033,27.5801 -52.0388,41.0134 -10.4254,7.2057 -16.3639,10.8485 -23.8765,14.6463 -26.0883,13.1881 -55.8919,20.8419 -86.782,22.2861 -8.3472,0.3903 -9.2881,0.3891 -17.966,-0.023 z"
       id="path1" />
  </g>
</svg>
