<svg xmlns="http://www.w3.org/2000/svg" viewBox="0 0 32 32" id="Time">
  <g color="#000" fill="#1b3711" class="color000000 svgShape">
    <path fill="#198754" d="M9.001 1024.362v5.718c0 3.23 2.367 5.883 5.479 6.37v1.873c-3.112.489-5.48 3.142-5.48 6.372v4.667h13.018v-4.667c0-3.23-2.367-5.883-5.479-6.371v-1.873c3.112-.488 5.479-3.142 5.479-6.371v-5.718z" overflow="visible" style="isolation:auto;mix-blend-mode:normal" transform="translate(0 -1020.362)" class="colore9eded svgShape"></path>
    <path fill="#52cc99" fill-rule="evenodd" d="M23.969 1023.361v27h1.062v-27H23.97z" font-family="sans-serif" font-weight="400" overflow="visible" style="line-height:normal;text-indent:0;text-align:start;text-decoration-line:none;text-decoration-style:solid;text-decoration-color:#000;text-transform:none;block-progression:tb;isolation:auto;mix-blend-mode:normal" transform="translate(0 -1020.362)" class="color2b4255 svgShape"></path>
    <path fill="#fac172" d="M10.5 1025.862v4.301h.006a5 5 0 0 0 4.002 4.8c.992.2.992.898.992.898s0-.696 1.003-.9a5 5 0 0 0 3.991-4.798h.006v-4.301zm5 19.5s0 .393-1.01.603a5.003 5.003 0 0 0-2.969 1.897h7.958a5.003 5.003 0 0 0-2.971-1.897c-1.008-.21-1.008-.603-1.008-.603z" overflow="visible" style="isolation:auto;mix-blend-mode:normal" transform="translate(0 -1020.362)" class="colorf8b84e svgShape"></path>
    <path fill="#52cc99" d="M6 1049.362h19c.554 0 1 .446 1 1s-.446 1-1 1H6c-.554 0-1-.446-1-1s.446-1 1-1zm0-27h19c.554 0 1 .446 1 1s-.446 1-1 1H6c-.554 0-1-.446-1-1s.446-1 1-1z" overflow="visible" style="isolation:auto;mix-blend-mode:normal" transform="translate(0 -1020.362)" class="color2b4255 svgShape"></path>
    <path fill="#52cc99" fill-rule="evenodd" d="M5.969 1023.361v27H7.03v-27H5.97z" font-family="sans-serif" font-weight="400" overflow="visible" style="line-height:normal;text-indent:0;text-align:start;text-decoration-line:none;text-decoration-style:solid;text-decoration-color:#000;text-transform:none;block-progression:tb;isolation:auto;mix-blend-mode:normal" transform="translate(0 -1020.362)" class="color2b4255 svgShape"></path>
  </g>
</svg>
