<svg xmlns="http://www.w3.org/2000/svg" viewBox="0 0 32 32" id="Pen">
  <path fill="#52cc99" d="m-608.313 1081.575-4.554 4.553-4.554 4.555-9.108-9.108a6.426 6.426 0 0 1 0-9.108 6.425 6.425 0 0 1 9.108 0 6.425 6.425 0 0 1 9.108 0 6.426 6.426 0 0 1 0 9.108l-9.108 9.108-4.554-4.555-4.554-4.553" color="#000" overflow="visible" style="isolation:auto;mix-blend-mode:normal" transform="translate(633.421 -1064.629)" class="color4bbfeb svgShape"></path>
  <path fill="#fac172" fill-rule="evenodd" d="M-622.59 1089.493a.497.497 0 0 0-.705.01l-1.067 1.067-.352 1.059 1.06-.352 1.066-1.067a.5.5 0 0 0-.001-.717z" color="#000" font-family="sans-serif" font-weight="400" overflow="visible" style="line-height:normal;text-indent:0;text-align:start;text-decoration-line:none;text-decoration-style:solid;text-decoration-color:#000;text-transform:none;block-progression:tb;isolation:auto;mix-blend-mode:normal" transform="translate(633.421 -1064.629)" class="color2b4255 svgShape"></path>
  <path fill="#198754" d="m-607.07 1071.863 1.799-1.799 2.12 2.122-1.78 1.78m-6.534 6.534-9.36 9.36-2.12-2.121 9.359-9.36" color="#000" overflow="visible" style="isolation:auto;mix-blend-mode:normal" transform="translate(633.421 -1064.629)" class="color34485c svgShape"></path>
  <path fill="#198754" d="M329.158 1209.639h2v2h-2z" color="#000" overflow="visible" style="isolation:auto;mix-blend-mode:normal" transform="rotate(45 1601.831 232.292)" class="color34485c svgShape"></path>
  <path fill="#f7801c" d="M328.158 1186.639h4v10h-4z" color="#000" overflow="visible" style="isolation:auto;mix-blend-mode:normal" transform="rotate(45 1601.831 232.292)" class="colorf05542 svgShape"></path>
  <path d="m-608.006 1072.092 2.828 2.828-1.152 1.153-2.829-2.828z" color="#000" opacity=".15" overflow="visible" style="isolation:auto;mix-blend-mode:normal" transform="translate(633.421 -1064.629)" fill="#1b3711" class="color000000 svgShape"></path>
  <path fill="#198754" fill-rule="evenodd" d="M-608.807 1070.771a.5.5 0 0 0-.707 0l-3.574 3.574-.353.354-1.724 1.723a.5.5 0 1 0 .707.708l1.724-1.724.353-.354 3.22-3.22.41.409 1.071 1.071 1.702 1.702.353.353.707-.707-.353-.353-1.677-1.677-1.096-1.097-.763-.762z" color="#000" font-family="sans-serif" font-weight="400" overflow="visible" style="line-height:normal;text-indent:0;text-align:start;text-decoration-line:none;text-decoration-style:solid;text-decoration-color:#000;text-transform:none;block-progression:tb;isolation:auto;mix-blend-mode:normal" transform="translate(633.421 -1064.629)" class="color34485c svgShape"></path>
  <path d="M329.158 1209.639h2v1h-2z" color="#000" opacity=".15" overflow="visible" style="isolation:auto;mix-blend-mode:normal" transform="rotate(45 1601.831 232.292)" fill="#1b3711" class="color000000 svgShape"></path>
  <path fill="none" stroke="#345c49" d="M2 26.5h2m1 0h3" class="colorStroke34485c svgStroke"></path>
</svg>
