<svg xmlns="http://www.w3.org/2000/svg" xml:space="preserve" id="Pot" x="0" y="0" enable-background="new 0 0 64 64" version="1.1" viewBox="0 0 64 64">
  <circle cx="32" cy="32" r="32" fill="#fac172" class="colorffc42e svgShape"></circle>
  <path d="M56.36,24.47h-11.7c-0.46,0-0.82,0.36-0.82,0.82v0.83c-1.85,0.01-3.58,0.91-4.63,2.43l-0.64,0.92
			c-0.59,0.86-1.5,1.44-2.5,1.64V28.9c0-3.53-6.33-6.2-14.73-6.2c-8.39,0-14.72,2.67-14.72,6.2v8.77c0.02,3.53,6.34,6.19,14.73,6.19
			c8.35,0,14.65-2.64,14.71-6.16c0-0.02,0.01-0.03,0.01-0.04v-0.82c1.54-0.22,2.94-1.08,3.85-2.37l0.64-0.92
			c0.75-1.08,1.97-1.72,3.28-1.73v0.82c0,0.46,0.36,0.82,0.82,0.82h11.7c2.48,0,4.5-2.02,4.5-4.5S58.84,24.47,56.36,24.47z
			 M34.43,37.65c0,0-0.01,0.01-0.01,0.02c0,2.15-5.36,4.56-13.07,4.56c-7.71,0-13.08-2.41-13.08-4.56v-5.83
			c2.41,1.98,7.24,3.27,13.07,3.27c5.85,0,10.68-1.29,13.08-3.27V37.65z M9.33,30.6c2.09-1.72,6.83-2.88,12.02-2.88
			c5.19,0,9.92,1.16,12.01,2.88c-1.92,1.55-6.33,2.86-12.01,2.86C15.67,33.47,11.27,32.15,9.33,30.6z M34.37,29.31
			c-2.46-1.99-7.37-3.23-13.01-3.23c-5.65,0-10.57,1.24-13.02,3.22c-0.04-0.14-0.06-0.26-0.06-0.4c0-2.16,5.37-4.56,13.07-4.56
			c7.71,0,13.08,2.4,13.08,4.56C34.43,29.04,34.41,29.17,34.37,29.31z M43.84,30.18c-1.85,0.02-3.58,0.92-4.63,2.44l-0.64,0.91
			c-0.59,0.86-1.5,1.44-2.5,1.64v-2.39c1.54-0.23,2.94-1.08,3.85-2.37l0.64-0.92c0.75-1.08,1.97-1.72,3.28-1.74V30.18z M56.36,31.82
			H45.48V26.1h10.88c1.58,0,2.86,1.29,2.86,2.86S57.93,31.82,56.36,31.82z" fill="#1b3711" class="color000000 svgShape"></path>
  <path fill="#52cc99" d="M34.43,31.83v5.81c0,0-0.01,0.01-0.01,0.02c0,2.15-5.36,4.56-13.07,4.56c-7.71,0-13.08-2.41-13.08-4.56
			v-5.83c2.41,1.98,7.24,3.27,13.07,3.27C27.19,35.1,32.02,33.82,34.43,31.83z" class="colora6b1bf svgShape"></path>
  <path fill="#f7801c" d="M33.36,30.6c-1.92,1.55-6.33,2.86-12.01,2.86c-5.68,0-10.08-1.31-12.01-2.86c2.09-1.72,6.83-2.88,12.02-2.88
			C26.54,27.72,31.28,28.88,33.36,30.6z" class="colorc2cbd6 svgShape"></path>
  <path fill="#52cc99" d="M34.43 28.9c0 .14-.03.27-.06.41-2.46-1.99-7.37-3.23-13.01-3.23-5.65 0-10.57 1.24-13.02 3.22-.04-.14-.06-.26-.06-.4 0-2.16 5.37-4.56 13.07-4.56C29.06 24.34 34.43 26.74 34.43 28.9zM43.84 27.76v2.42c-1.85.02-3.58.92-4.63 2.44l-.64.91c-.59.86-1.5 1.44-2.5 1.64v-2.39c1.54-.23 2.94-1.08 3.85-2.37l.64-.92C41.3 28.42 42.53 27.77 43.84 27.76z" class="colora6b1bf svgShape"></path>
  <path fill="#198754" d="M59.21,28.97c0,1.58-1.28,2.86-2.86,2.86H45.48V26.1h10.88C57.93,26.1,59.21,27.39,59.21,28.97z" class="color67737e svgShape"></path>
</svg>
