<svg xmlns="http://www.w3.org/2000/svg" viewBox="0 0 64 64" id="recipebook">
  <g fill="#22242f" class="color000000 svgShape">
    <path fill="#ffc107" d="M49 3H15a4 4 0 0 0-4 4v50a4 4 0 0 1 4-4h34a4 4 0 0 0 4-4V7a4 4 0 0 0-4-4Z" class="colora06020 svgShape"></path>
    <path fill="#fffff0" d="M39.87 12.38a5.89 5.89 0 0 0-11.74 0c-1.54-.71-5.13-1.38-7.28 1.85-2.52 3.79-.23 8.93 3.65 9.56V34a2 2 0 0 0 2 2h15a2 2 0 0 0 2-2V23.79c3.88-.63 6.17-5.77 3.65-9.56-2.15-3.23-5.74-2.56-7.28-1.85Z" class="colore4f4fd svgShape"></path>
    <path fill="#f7801c" d="M43.5 29v5a2 2 0 0 1-2 2h-15a2 2 0 0 1-2-2v-5Z" class="colorc9dfeb svgShape"></path>
    <rect width="6.24" height="9.37" x="39.88" y="32.32" fill="#cbcba2" rx="3.12" transform="rotate(59.98 42.996 36.998)" class="colora2bbcb svgShape"></rect>
    <path fill="#cbcba2" d="M29.049 39.335a3.12 3.12 0 0 1-4.263 1.14l-5.411-3.126 3.122-5.403 5.411 3.127a3.12 3.12 0 0 1 1.14 4.262Z" class="colora2bbcb svgShape"></path>
    <path fill="#f7801c" d="M49 53H15a4 4 0 0 0 0 8h36a2 2 0 0 0 2-2V49a4 4 0 0 1-4 4Z" class="colorc9dfeb svgShape"></path>
    <path fill="#527015" d="M15 3v50a4 4 0 0 0-4 4V7a4 4 0 0 1 4-4Z" class="color87460b svgShape"></path>
    <g fill="#1b3711" class="color1e120b svgShape">
      <path d="M49 2H15a5 5 0 0 0-5 5v50a5 5 0 0 0 5 5h36a3 3 0 0 0 3-3V7a5 5 0 0 0-5-5Zm2 58H15a3 3 0 0 1 0-6h34a5 5 0 0 0 3-1v3H18a1 1 0 0 0 0 2h34v1a1 1 0 0 1-1 1Zm-2-8H16V28a1 1 0 0 0-2 0v24.1a4.84 4.84 0 0 0-2 .9V7a3 3 0 0 1 2-2.82V20a1 1 0 0 0 2 0V4h33a3 3 0 0 1 3 3v42a3 3 0 0 1-3 3Z" fill="#22242f" class="color000000 svgShape"></path>
      <circle cx="15" cy="24" r="1" fill="#22242f" class="color000000 svgShape"></circle>
      <path d="M48.57 20.76a7.4 7.4 0 0 0-.57-7.08 6.51 6.51 0 0 0-7.35-2.62 6.87 6.87 0 0 0-13.26 0A6.51 6.51 0 0 0 20 13.68a7.4 7.4 0 0 0-.59 7.08 6.71 6.71 0 0 0 4.07 3.82v6.8l-.5-.29a1 1 0 0 0-1.36.37l-3.12 5.4a1 1 0 0 0 .36 1.37l5.41 3.12a4.12 4.12 0 0 0 5-.72L31.9 42l-9.38 5.09a1 1 0 1 0 1 1.76L34 43.16l10.52 5.72a1 1 0 1 0 1-1.76L36.1 42l2.57-1.4a4.14 4.14 0 0 0 5 .72l2.7-1.56a4.11 4.11 0 0 0-1.91-7.68v-7.5a6.71 6.71 0 0 0 4.11-3.82ZM21.26 20a5.42 5.42 0 0 1 .42-5.18c2.16-3.23 5.87-1.56 6-1.49a4.93 4.93 0 0 1 2.87 4.59 1 1 0 0 0 2 0 6.94 6.94 0 0 0-3.33-6 4.88 4.88 0 0 1 9.63.64 1 1 0 0 0 .5.76 1 1 0 0 0 .91 0c.16-.07 3.88-1.74 6 1.49a5.42 5.42 0 0 1 .48 5.19 4.64 4.64 0 0 1-3.4 2.85 1 1 0 0 0-.84 1V28h-17v-4.21a1 1 0 0 0-.84-1 4.64 4.64 0 0 1-3.4-2.79Zm4 19.66L20.75 37l2.12-3.68 4.54 2.62a2.12 2.12 0 1 1-2.12 3.68Zm5-.74a4.11 4.11 0 0 0 .12-1.92h7.24a4.11 4.11 0 0 0 .07 1.88l-3.69 2Zm15.88-3.72a2.14 2.14 0 0 1-.78 2.9l-2.7 1.56a2.12 2.12 0 1 1-2.12-3.68l2.7-1.56a2.13 2.13 0 0 1 2.95.74Zm-3.9-2.51-2.7 1.56a4.09 4.09 0 0 0-1 .79h-9.17a4.09 4.09 0 0 0-1-.79l-2.87-1.72V30h17v2.56Z" fill="#22242f" class="color000000 svgShape"></path>
    </g>
  </g>
</svg>
